<svg width="32" height="32" viewBox="0 0 32 32" fill="none" xmlns="http://www.w3.org/2000/svg">
<path d="M18.7027 16L30.7777 3.94416C31.1386 3.58324 31.3414 3.09373 31.3414 2.58332C31.3414 2.07291 31.1386 1.5834 30.7777 1.22249C30.4168 0.861574 29.9273 0.658813 29.4169 0.658813C28.9065 0.658813 28.417 0.861574 28.056 1.22249L16.0002 13.2975L3.94438 1.22249C3.58346 0.861574 3.09395 0.658814 2.58354 0.658814C2.07313 0.658814 1.58362 0.861574 1.22271 1.22249C0.861793 1.5834 0.659033 2.07291 0.659033 2.58332C0.659033 3.09373 0.861793 3.58324 1.22271 3.94416L13.2977 16L1.22271 28.0558C1.04306 28.234 0.900474 28.446 0.803167 28.6795C0.70586 28.9131 0.655762 29.1636 0.655762 29.4167C0.655762 29.6697 0.70586 29.9202 0.803167 30.1538C0.900474 30.3873 1.04306 30.5993 1.22271 30.7775C1.40089 30.9571 1.61287 31.0997 1.84644 31.197C2.08 31.2943 2.33052 31.3444 2.58354 31.3444C2.83656 31.3444 3.08708 31.2943 3.32065 31.197C3.55421 31.0997 3.7662 30.9571 3.94438 30.7775L16.0002 18.7025L28.056 30.7775C28.2342 30.9571 28.4462 31.0997 28.6798 31.197C28.9133 31.2943 29.1639 31.3444 29.4169 31.3444C29.6699 31.3444 29.9204 31.2943 30.154 31.197C30.3875 31.0997 30.5995 30.9571 30.7777 30.7775C30.9574 30.5993 31.0999 30.3873 31.1973 30.1538C31.2946 29.9202 31.3447 29.6697 31.3447 29.4167C31.3447 29.1636 31.2946 28.9131 31.1973 28.6795C31.0999 28.446 30.9574 28.234 30.7777 28.0558L18.7027 16Z" fill="#FFFEFE"/>
</svg>
